<svg viewBox="0 0 640 400" data-background-color="#ffffff" preserveAspectRatio="xMidYMid meet" height="400" width="640"
    xmlns="http://www.w3.org/2000/svg" xmlns:xlink="http://www.w3.org/1999/xlink">
    <rect width="640" height="400" x="0" y="0" opacity="0" fill="#ffffff" data-fill-palette-color="background"
        id="background"></rect>
    <g id="tight-bounds" transform="matrix(1,0,0,1,122.24000000000001,136.8368466780016)"><svg
            viewBox="0 0 395.52 126.32630664399682" height="126.32630664399682" width="395.52">
            <g><svg viewBox="0 0 395.52 126.32630664399682" height="126.32630664399682" width="395.52">
                    <g><svg viewBox="0 0 395.52 126.32630664399682" height="126.32630664399682" width="395.52">
                            <g id="textblocktransform"><svg viewBox="0 0 395.52 126.32630664399682"
                                    height="126.32630664399682" width="395.52" id="textblock">
                                    <g><svg viewBox="0 0 395.52 88.74791195769396" height="88.74791195769396"
                                            width="395.52">
                                            <rect width="395.52" height="88.74791195769396" x="0" y="0" opacity="1"
                                                fill="#a437db" data-fill-palette-color="tertiary"></rect>
                                            <g transform="matrix(1,0,0,1,23.461705032,23.461705032)"><svg
                                                    width="348.596589936"
                                                    viewBox="4 -35.20000076293945 295.0299987792969 35.400001525878906"
                                                    height="41.824501893693956" data-palette-color="#ffffff">
                                                    <path
                                                        d="M4 0L4-35 13-35Q23.5-35 26.7-26.2L26.7-26.2Q27.9-23 27.9-17.78 27.9-12.55 26.75-8.97 25.6-5.4 23.5-3.4 21.4-1.4 18.43-0.7 15.45 0 11.75 0L11.75 0 4 0ZM12.75-32.25L7.4-32.25 7.4-2.75 11.5-2.75Q14.1-2.75 16.5-3.2L16.5-3.2Q24.5-4.6 24.5-18.05L24.5-18.05Q24.5-25.6 21-29.2L21-29.2Q17.95-32.25 12.75-32.25L12.75-32.25ZM52.35-35L52.1-32 37.55-32 37.55-18.85 51.05-18.85 50.8-15.85 37.55-15.85 37.55-3 53.35-3 53.1 0 34.15 0 34.15-35 52.35-35ZM60.75-35L72.09-3.8 82.65-35 85.9-35 73.5 0 70.2 0 57.35-35 60.75-35ZM109.99-35L109.74-32 95.19-32 95.19-18.85 108.69-18.85 108.44-15.85 95.19-15.85 95.19-3 110.99-3 110.74 0 91.79 0 91.79-35 109.99-35ZM135.69-3L135.44 0 116.49 0 116.49-35 119.89-35 119.89-3 135.69-3ZM154.49-35.2L154.49-35.2Q169.24-35.2 169.24-17.4L169.24-17.4Q169.24-9.25 165.04-4.53 160.84 0.2 154.49 0.2L154.49 0.2Q147.74 0.2 144.04-3.5L144.04-3.5Q139.74-7.9 139.74-16.75 139.74-25.6 143.96-30.4 148.19-35.2 154.49-35.2ZM146.49-5.9L146.49-5.9Q149.24-2.8 154.49-2.8L154.49-2.8Q159.44-2.8 162.64-6.73 165.84-10.65 165.84-18 165.84-25.35 162.49-29.05L162.49-29.05Q159.69-32.2 154.49-32.2L154.49-32.2Q149.59-32.2 146.36-28.25 143.14-24.3 143.14-16.93 143.14-9.55 146.49-5.9ZM178.89 0L175.49 0 175.49-35 182.74-35Q188.89-35 191.64-33.05L191.64-33.05Q194.84-30.8 194.84-25.35L194.84-25.35Q194.84-16.25 187.84-14.25L187.84-14.25Q185.59-13.6 182.74-13.6L182.74-13.6 178.89-13.6 178.89 0ZM182.49-32.25L178.89-32.25 178.89-16.35 182.49-16.35Q186.99-16.35 189.21-18.32 191.44-20.3 191.44-24.78 191.44-29.25 189.21-30.75 186.99-32.25 182.49-32.25L182.49-32.25ZM218.93-35L218.68-32 204.13-32 204.13-18.85 217.63-18.85 217.38-15.85 204.13-15.85 204.13-3 219.93-3 219.68 0 200.73 0 200.73-35 218.93-35ZM225.43 0L225.43-35 234.43-35Q244.93-35 248.13-26.2L248.13-26.2Q249.33-23 249.33-17.78 249.33-12.55 248.18-8.97 247.03-5.4 244.93-3.4 242.83-1.4 239.86-0.7 236.88 0 233.18 0L233.18 0 225.43 0ZM234.18-32.25L228.83-32.25 228.83-2.75 232.93-2.75Q235.53-2.75 237.93-3.2L237.93-3.2Q245.93-4.6 245.93-18.05L245.93-18.05Q245.93-25.6 242.43-29.2L242.43-29.2Q239.38-32.25 234.18-32.25L234.18-32.25ZM264.48-2.4L264.48 0 255.08 0 255.08-2.4 258.08-2.75 258.08-32.2 255.33-32.55 255.33-35 264.23-35 264.23-32.55 261.48-32.2 261.48-2.75 264.48-2.4ZM295.38 0L292.08-9.25 276.68-9.25 273.48 0 270.23 0 282.88-35 285.93-35 299.03 0 295.38 0ZM284.23-31.2L277.53-11.75 291.18-11.75 284.23-31.2Z"
                                                        opacity="1" transform="matrix(1,0,0,1,0,0)" fill="#ffffff"
                                                        class="wordmark-text-0" data-fill-palette-color="quaternary"
                                                        id="text-0"></path>
                                                </svg></g>
                                        </svg></g>
                                    <g transform="matrix(1,0,0,1,0,100.47876447369396)"><svg
                                            viewBox="0 0 395.52 25.847542170302862" height="25.847542170302862"
                                            width="395.52">
                                            <g transform="matrix(1,0,0,1,0,0)"><svg width="395.52"
                                                    viewBox="1.600000023841858 -35.099998474121094 713.8400268554688 46.64999771118164"
                                                    height="25.847542170302862" data-palette-color="#a437db">
                                                    <path
                                                        d="M9.7 0.7L9.7 0.7Q7.3 0.7 5.38 0.18 3.45-0.35 1.7-1.3L1.7-1.3 1.7-7.2 3.05-7.2 4.55-4.35Q5.5-2.5 6.73-1.6 7.95-0.7 9.85-0.7L9.85-0.7Q12.2-0.7 13.6-1.73 15-2.75 15-4.5L15-4.5Q15-6.1 13.95-7.1 12.9-8.1 10.2-8.95L10.2-8.95 8-9.65Q5.05-10.55 3.33-12.38 1.6-14.2 1.6-16.95L1.6-16.95Q1.6-19.1 2.75-20.88 3.9-22.65 6.1-23.7 8.3-24.75 11.45-24.75L11.45-24.75Q13.5-24.75 15.23-24.28 16.95-23.8 18.6-22.95L18.6-22.95 18.3-17.6 17-17.6 15.45-20.45Q14.65-22.05 13.83-22.68 13-23.3 11.3-23.3L11.3-23.3Q9.5-23.3 8.13-22.38 6.75-21.45 6.75-19.8L6.75-19.8Q6.75-18.25 7.9-17.28 9.05-16.3 11.6-15.45L11.6-15.45 13.75-14.8Q17.4-13.65 18.95-11.75 20.5-9.85 20.5-7.2L20.5-7.2Q20.5-3.65 17.68-1.48 14.85 0.7 9.7 0.7ZM101.92 0L90.32 0 90.32-0.95 91.07-1.2Q92.77-1.7 92.77-3.65L92.77-3.65 92.77-29.55Q92.77-30.55 92.37-31.08 91.97-31.6 90.97-31.85L90.97-31.85 90.32-32.05 90.32-33 99.07-35.1 99.72-34.65 99.52-27.6 99.52-3.65Q99.52-1.65 101.22-1.15L101.22-1.15 101.92-0.95 101.92 0ZM117.12 0L108.62 0 99.57-12.5 108.42-20.7Q109.07-21.25 109.17-21.93 109.27-22.6 108.32-22.85L108.32-22.85 107.52-23.05 107.52-24 115.32-24 115.32-23.05 113.87-22.7Q112.77-22.4 112.07-21.88 111.37-21.35 110.42-20.5L110.42-20.5 104.92-15.35 113.42-3.7Q114.22-2.65 114.87-2.08 115.52-1.5 116.62-1.1L116.62-1.1 117.12-0.95 117.12 0ZM192.05-27.5L192.05-27.5Q190.4-27.5 189.25-28.55 188.1-29.6 188.1-31.2L188.1-31.2Q188.1-32.85 189.25-33.88 190.4-34.9 192.05-34.9L192.05-34.9Q193.7-34.9 194.85-33.88 196-32.85 196-31.2L196-31.2Q196-29.6 194.85-28.55 193.7-27.5 192.05-27.5ZM197.75 0L186.3 0 186.3-0.95 187.05-1.15Q188.05-1.45 188.4-2.05 188.75-2.65 188.8-3.65L188.8-3.65 188.8-12.85Q188.8-14.4 188.8-15.73 188.8-17.05 188.75-18.45L188.75-18.45Q188.75-19.45 188.37-20.03 188-20.6 187-20.8L187-20.8 186.3-20.95 186.3-21.85 195.05-24.75 195.65-24.2 195.5-17.1 195.5-3.6Q195.5-2.6 195.87-2 196.25-1.4 197.2-1.1L197.2-1.1 197.75-0.95 197.75 0ZM279.12 0L267.47 0 267.47-0.95 268.22-1.15Q269.87-1.7 269.87-3.65L269.87-3.65Q269.87-5.35 269.9-7.08 269.92-8.8 269.92-10.5L269.92-10.5 269.92-29.5Q269.92-30.55 269.57-31.08 269.22-31.6 268.22-31.85L268.22-31.85 267.47-32.05 267.47-33 276.22-35.1 276.87-34.65 276.67-27.6 276.67-3.65Q276.72-2.65 277.1-2.02 277.47-1.4 278.42-1.15L278.42-1.15 279.12-0.95 279.12 0ZM360.54 0L348.89 0 348.89-0.95 349.64-1.15Q351.29-1.7 351.29-3.65L351.29-3.65Q351.29-5.35 351.32-7.08 351.34-8.8 351.34-10.5L351.34-10.5 351.34-29.5Q351.34-30.55 350.99-31.08 350.64-31.6 349.64-31.85L349.64-31.85 348.89-32.05 348.89-33 357.64-35.1 358.29-34.65 358.09-27.6 358.09-3.65Q358.14-2.65 358.52-2.02 358.89-1.4 359.84-1.15L359.84-1.15 360.54-0.95 360.54 0ZM520.44 11.55L508.64 11.55 508.64 10.6 509.29 10.4Q510.29 10.15 510.69 9.58 511.09 9 511.09 7.95L511.09 7.95Q511.09 5.9 511.12 4.08 511.14 2.25 511.14 0.55L511.14 0.55 511.14-13.2Q511.14-14.75 511.14-15.88 511.14-17 511.09-18.4L511.09-18.4Q511.09-19.45 510.74-20.03 510.39-20.6 509.39-20.8L509.39-20.8 508.64-20.95 508.64-21.85 516.69-24.75 517.29-24.25 517.74-22.4Q521.19-24.75 525.54-24.75L525.54-24.75Q529.79-24.75 532.37-21.55 534.94-18.35 534.94-12.1L534.94-12.1Q534.94-6.05 532.12-2.68 529.29 0.7 524.44 0.7L524.44 0.7Q522.49 0.7 520.77 0.35 519.04 0 517.69-0.7L517.69-0.7 517.69 0.8Q517.69 2.3 517.72 4.05 517.74 5.8 517.74 7.85L517.74 7.85Q517.74 9.85 519.49 10.35L519.49 10.35 520.44 10.6 520.44 11.55ZM522.09-1.3L522.09-1.3Q524.74-1.3 526.27-3.68 527.79-6.05 527.79-11.9L527.79-11.9Q527.79-17.7 526.34-20.03 524.89-22.35 522.24-22.35L522.24-22.35Q521.29-22.35 520.19-22.05 519.09-21.75 517.84-21.05L517.84-21.05 517.84-2.15Q519.84-1.3 522.09-1.3ZM617.17 0.7L617.17 0.7Q613.47 0.7 610.69-0.85 607.92-2.4 606.39-5.25 604.87-8.1 604.87-12.05L604.87-12.05Q604.87-16 606.49-18.85 608.12-21.7 610.89-23.23 613.67-24.75 617.17-24.75L617.17-24.75Q620.67-24.75 623.44-23.23 626.22-21.7 627.84-18.88 629.47-16.05 629.47-12.05L629.47-12.05Q629.47-8.1 627.94-5.23 626.42-2.35 623.67-0.83 620.92 0.7 617.17 0.7ZM617.17-0.7L617.17-0.7Q618.97-0.7 620.09-1.68 621.22-2.65 621.72-5.1 622.22-7.55 622.22-11.95L622.22-11.95Q622.22-16.4 621.72-18.88 621.22-21.35 620.09-22.33 618.97-23.3 617.17-23.3L617.17-23.3Q615.37-23.3 614.27-22.33 613.17-21.35 612.64-18.88 612.12-16.4 612.12-11.95L612.12-11.95Q612.12-7.55 612.64-5.1 613.17-2.65 614.27-1.68 615.37-0.7 617.17-0.7ZM708.59 0.7L708.59 0.7Q705.49 0.7 703.71-0.83 701.94-2.35 701.94-5.8L701.94-5.8Q701.94-7 701.96-8.08 701.99-9.15 701.99-10.6L701.99-10.6 701.99-22.45 698.44-22.45 698.44-23.55 699.79-23.75Q701.24-24 702.26-24.65 703.29-25.3 704.14-26.45L704.14-26.45 707.39-30.95 708.89-30.95 708.74-24 714.44-24 714.44-22.45 708.69-22.45 708.69-5.4Q708.69-3.6 709.46-2.7 710.24-1.8 711.39-1.8L711.39-1.8Q712.39-1.8 713.19-2.27 713.99-2.75 714.79-3.55L714.79-3.55 715.44-2.8Q714.49-1.15 712.79-0.23 711.09 0.7 708.59 0.7Z"
                                                        opacity="1" transform="matrix(1,0,0,1,0,0)" fill="#a437db"
                                                        class="slogan-text-1" data-fill-palette-color="secondary"
                                                        id="text-1"></path>
                                                </svg></g>
                                        </svg></g>
                                </svg></g>
                        </svg></g>
                    <g></g>
                </svg></g>
            <defs></defs>
        </svg>
        <rect width="395.52" height="126.32630664399682" fill="none" stroke="none" visibility="hidden"></rect>
    </g>
</svg>